<svg xmlns="http://www.w3.org/2000/svg" class="icon icon-tabler icon-tabler-arrow-badge-left" width="80" height="80" viewBox="0 0 24 24" stroke-width="1.5" stroke="#ffffff" fill="none" stroke-linecap="round" stroke-linejoin="round">
  <path id="leftArrow" stroke="none" d="M0 0h24v24H0z" fill="none"/>
  <path id="leftArrow" d="M11 17h6l-4 -5l4 -5h-6l-4 5z" />
</svg>
<svg xmlns="http://www.w3.org/2000/svg" class="icon icon-tabler icon-tabler-caret-left" width="80" height="80" viewBox="0 0 24 24" stroke-width="1.5" stroke="#ffffff" fill="none" stroke-linecap="round" stroke-linejoin="round">
  <path stroke="none" d="M0 0h24v24H0z" fill="none"/>
  <path d="M14 6l-6 6l6 6v-12" />
</svg>
<svg xmlns="http://www.w3.org/2000/svg" class="icon icon-tabler icon-tabler-chevron-left" width="80" height="80" viewBox="0 0 24 24" stroke-width="1.5" stroke="#ffffff" fill="none" stroke-linecap="round" stroke-linejoin="round">
  <path stroke="none" d="M0 0h24v24H0z" fill="none"/>
  <path d="M15 6l-6 6l6 6" />
</svg>
<svg xmlns="http://www.w3.org/2000/svg" class="icon icon-tabler icon-tabler-circle-chevron-left" width="80" height="80" viewBox="0 0 24 24" stroke-width="1.5" stroke="#ffffff" fill="none" stroke-linecap="round" stroke-linejoin="round">
  <path stroke="none" d="M0 0h24v24H0z" fill="none"/>
  <path d="M13 15l-3 -3l3 -3" />
  <path d="M21 12a9 9 0 1 0 -18 0a9 9 0 0 0 18 0z" />
</svg>