<svg xmlns="http://www.w3.org/2000/svg" class="icon icon-tabler icon-tabler-arrow-badge-right" width="60" height="60" viewBox="0 0 24 24" stroke-width="1" stroke="#ffffff" fill="none" stroke-linecap="round" stroke-linejoin="round">
  <path stroke="none" d="M0 0h24v24H0z" fill="none"/>
  <path d="M13 7h-6l4 5l-4 5h6l4 -5z" />
</svg>
<svg xmlns="http://www.w3.org/2000/svg" class="icon icon-tabler icon-tabler-chevron-right" width="60" height="60" viewBox="0 0 24 24" stroke-width="1" stroke="#ffffff" fill="none" stroke-linecap="round" stroke-linejoin="round">
  <path stroke="none" d="M0 0h24v24H0z" fill="none"/>
  <path d="M9 6l6 6l-6 6" />
</svg>
<svg xmlns="http://www.w3.org/2000/svg" class="icon icon-tabler icon-tabler-caret-right" width="60" height="60" viewBox="0 0 24 24" stroke-width="1" stroke="#ffffff" fill="none" stroke-linecap="round" stroke-linejoin="round">
  <path stroke="none" d="M0 0h24v24H0z" fill="none"/>
  <path d="M10 18l6 -6l-6 -6v12" />
</svg>
<svg xmlns="http://www.w3.org/2000/svg" class="icon icon-tabler icon-tabler-circle-chevron-right" width="60" height="60" viewBox="0 0 24 24" stroke-width="1" stroke="#ffffff" fill="none" stroke-linecap="round" stroke-linejoin="round">
  <path stroke="none" d="M0 0h24v24H0z" fill="none"/>
  <path d="M11 9l3 3l-3 3" />
  <path d="M3 12a9 9 0 1 0 18 0a9 9 0 0 0 -18 0z" />
</svg>